<?xml version="1.0" encoding="UTF-8"?>
<svg id="Camada_1" data-name="Camada 1" xmlns="http://www.w3.org/2000/svg" xmlns:xlink="http://www.w3.org/1999/xlink" viewBox="0 0 1366 768">
  <defs>
    <style>
      .cls-1 {
        fill: #464648;
      }

      .cls-2 {
        fill: #f58025;
      }

      .cls-3 {
        clip-path: url(#clippath-1);
      }

      .cls-4 {
        fill: #ed5a1b;
      }

      .cls-5 {
        fill: #de4618;
      }

      .cls-6 {
        fill: #e34920;
      }

      .cls-7 {
        fill: #d02d16;
      }

      .cls-8 {
        fill: #f1661b;
      }
    </style>
    <clipPath id="clippath-1">
      <path class="cls-5" d="M850.59,152.99c-5.94.68-13.31,3.76-19.58,3.92v-31.5l-8.34-3.41-39.66,10.91v-25.5c0-.22-2.43-3.38-2.7-3.55-3.34-2.07-12.46,1.96-16.45,3.4-55.39,20.01-110.15,45.65-165.58,66.42-21.48,8.04-54.29,16.01-73.26,25.73-2.94,1.5-8.31,5.76-9.01,9v16.5l.1,17.1-1.1,16.4c-13.87,6.23-29.82,11.01-43.36,17.64-1,.49-10.75,4.81-8.63,6.86l53.97,4.48-1.12,16.38c-1.45,2.26-44.67,11.81-51.55,14.95-5.03,2.31-7.27,5.39-5.67,11.01,1.05,4.17,5.19,5.27,8.94,6.11l48.42-4.93-.14,8.86c-8.97,5.49-42.18,5.07-35.19,21.9,4.5,9.5,32.87-5.21,35.33-2.76l-.13,17.89-31.14,10.07c-2.02,2.85-3.4,5.5-2.8,7.52-1.09,1.84-.19,3.82,3.12,5.97l30.95,1.55,1.5,9.02-1.5,31.98.47,32.03c2.06,6.48,7.85,8.14,14.04,8.04,20.87-.33,49.19-13.13,71.12-13.94,65.24-9.38,131.64-15.58,197.83-20.17,10.93-.76,28.92,2.37,36.53-7.48,1.39-1.81,3.59-6.77,3.92-9.07-6.41-80.4-.26-157.86,15.34-236.66,2.05-10.39,6.21-20.96,7.5-31.5,1.36-11.19-.99-12.45-12.17-11.17ZM541.58,467.98c-1.55.59-2.77,1.27-4.57.92,17.28-18.1,40.44-30,61.98-42.51,52.19-25.97,106.78-46.8,160.02-70.48v-223l-3.23.27c-47.41,20.28-93.91,43.42-143.32,58.58l-5.55-4.37,4.36-5.7c53.46-20.73,105.61-44.6,157.74-68.38l3.07,1.02.76,254.42c-64.31,26.68-130.41,49.03-193.19,79.3-11.99,5.78-26.37,15.47-38.07,19.93ZM818.97,192.37c-2.83,57.13-5.51,114.8-4,172.08.37,13.96,2.9,29.33,3.09,43.03.09,6.28-4.74,6.45-9.68,7.3-18.5,3.16-38.9,3.73-57.72,6.28-53.64,7.27-106.77,17.62-159.64,28.84l77.76-28.72c44.19-10.02,88.91-18.25,134.23-21.27-1.09-39.7-1.8-79.75-1.04-119.54.65-33.98,3.08-68.06,5.03-101.97.56-9.77.35-19.72,1-29.49l-23.99,6v-10.51s1.69-2.3,1.69-2.3l35.17-9.05c3.55,2.23-1.52,51.56-1.9,59.32Z"/>
    </clipPath>
  </defs>
  <g>
    <g>
      <path class="cls-5" d="M850.59,152.99c-5.94.68-13.31,3.76-19.58,3.92v-31.5l-8.34-3.41-39.66,10.91v-25.5c0-.22-2.43-3.38-2.7-3.55-3.34-2.07-12.46,1.96-16.45,3.4-55.39,20.01-110.15,45.65-165.58,66.42-21.48,8.04-54.29,16.01-73.26,25.73-2.94,1.5-8.31,5.76-9.01,9v16.5l.1,17.1-1.1,16.4c-13.87,6.23-29.82,11.01-43.36,17.64-1,.49-10.75,4.81-8.63,6.86l53.97,4.48-1.12,16.38c-1.45,2.26-44.67,11.81-51.55,14.95-5.03,2.31-7.27,5.39-5.67,11.01,1.05,4.17,5.19,5.27,8.94,6.11l48.42-4.93-.14,8.86c-8.97,5.49-42.18,5.07-35.19,21.9,4.5,9.5,32.87-5.21,35.33-2.76l-.13,17.89-31.14,10.07c-2.02,2.85-3.4,5.5-2.8,7.52-1.09,1.84-.19,3.82,3.12,5.97l30.95,1.55,1.5,9.02-1.5,31.98.47,32.03c2.06,6.48,7.85,8.14,14.04,8.04,20.87-.33,49.19-13.13,71.12-13.94,65.24-9.38,131.64-15.58,197.83-20.17,10.93-.76,28.92,2.37,36.53-7.48,1.39-1.81,3.59-6.77,3.92-9.07-6.41-80.4-.26-157.86,15.34-236.66,2.05-10.39,6.21-20.96,7.5-31.5,1.36-11.19-.99-12.45-12.17-11.17ZM541.58,467.98c-1.55.59-2.77,1.27-4.57.92,17.28-18.1,40.44-30,61.98-42.51,52.19-25.97,106.78-46.8,160.02-70.48v-223l-3.23.27c-47.41,20.28-93.91,43.42-143.32,58.58l-5.55-4.37,4.36-5.7c53.46-20.73,105.61-44.6,157.74-68.38l3.07,1.02.76,254.42c-64.31,26.68-130.41,49.03-193.19,79.3-11.99,5.78-26.37,15.47-38.07,19.93ZM818.97,192.37c-2.83,57.13-5.51,114.8-4,172.08.37,13.96,2.9,29.33,3.09,43.03.09,6.28-4.74,6.45-9.68,7.3-18.5,3.16-38.9,3.73-57.72,6.28-53.64,7.27-106.77,17.62-159.64,28.84l77.76-28.72c44.19-10.02,88.91-18.25,134.23-21.27-1.09-39.7-1.8-79.75-1.04-119.54.65-33.98,3.08-68.06,5.03-101.97.56-9.77.35-19.72,1-29.49l-23.99,6v-10.51s1.69-2.3,1.69-2.3l35.17-9.05c3.55,2.23-1.52,51.56-1.9,59.32Z"/>
      <g class="cls-3">
        <g>
          <path class="cls-7" d="M419.23,262.65c99.49-6.23,190.66-54.34,284.29-88.57,83.19-30.41,170.22-50.26,258.37-58.93"/>
          <path class="cls-7" d="M419.23,308.79c36.85-2.4,73.39-9.24,108.81-19.61,32.34-9.47,63.84-21.53,95.1-34.05s62.63-25.66,94.43-37.22c33.3-12.1,67.21-22.52,101.55-31.2,38.65-9.77,77.83-17.31,117.33-22.68l-12.26,1.65c12.54-1.68,25.11-3.15,37.7-4.4s23.43-4.32,32.62-13.51c8-8,14.03-21.13,13.51-32.62-.53-11.93-4.45-24.31-13.51-32.62-8.5-7.8-20.64-14.7-32.62-13.51-75.29,7.47-149.82,21.67-222.1,44.17-66.56,20.72-129.69,50.3-195.27,73.64-36,12.81-72.86,23.42-110.78,28.67l12.26-1.65c-8.9,1.19-17.82,2.09-26.78,2.67-12.3.8-23.71,4.6-32.62,13.51-8,8-14.03,21.13-13.51,32.62s4.45,24.31,13.51,32.62,20.44,14.31,32.62,13.51h0Z"/>
        </g>
        <g>
          <path class="cls-4" d="M857.6,222.63c-121.3,32.15-242.6,64.3-363.91,96.46"/>
          <path class="cls-4" d="M845.33,178.14c-94.35,25.01-188.69,50.01-283.04,75.02-26.96,7.14-53.91,14.29-80.87,21.43-11.15,2.96-21.77,11.28-27.57,21.2s-8.24,24.46-4.65,35.55c7.76,23.98,31.75,38.85,56.75,32.22,94.35-25.01,188.69-50.01,283.04-75.02,26.96-7.14,53.91-14.29,80.87-21.43,11.15-2.96,21.77-11.28,27.57-21.2s8.24-24.46,4.65-35.55c-7.76-23.98-31.75-38.85-56.75-32.22h0Z"/>
        </g>
        <g>
          <path class="cls-2" d="M876.12,274.94c-130.1,21.97-258.72,52.65-384.73,91.78"/>
          <path class="cls-2" d="M863.85,230.45c-101.4,17.15-201.9,39.54-300.97,67.12-28.04,7.81-55.96,16.04-83.75,24.66-11.31,3.51-21.52,10.86-27.57,21.2s-8.24,24.46-4.65,35.55,10.53,21.93,21.2,27.57,23.58,8.36,35.55,4.65c98.22-30.47,198-55.86,298.86-75.98,28.54-5.69,57.17-10.95,85.87-15.81,10.74-1.82,22.29-12.18,27.57-21.2,5.79-9.89,8.24-24.46,4.65-35.55-3.61-11.16-10.53-21.93-21.2-27.57l-11.02-4.65c-8.18-2.2-16.35-2.2-24.53,0h0Z"/>
        </g>
        <g>
          <path class="cls-6" d="M890.33,347.59c-138.65,9.85-275.43,45.43-401.3,104.4"/>
          <path class="cls-6" d="M890.33,301.46c-112.84,8.11-224.63,31.44-330.62,71.15-31.82,11.92-63.19,25.16-93.97,39.54-9.92,4.64-18.4,17.4-21.2,27.57-3.04,11.04-1.67,25.75,4.65,35.55s15.81,18.52,27.57,21.2l12.26,1.65c8.33-.03,16.09-2.13,23.29-6.3,13.31-6.22,26.74-12.2,40.28-17.92-3.67,1.55-7.35,3.1-11.02,4.65,72.26-30.39,147.58-53.38,224.53-68.38,21.64-4.22,43.4-7.79,65.24-10.76l-12.26,1.65c23.67-3.18,47.43-5.63,71.25-7.34,12.35-.89,23.66-4.55,32.62-13.51,8-8,14.03-21.13,13.51-32.62-.53-11.93-4.45-24.31-13.51-32.62s-20.48-14.39-32.62-13.51h0Z"/>
        </g>
      </g>
    </g>
    <path class="cls-5" d="M426.74,331.17c3.16,3.57,1.44,11.51-3.03,13.95-2.01,1.1-24.29,7.68-26.31,7.76-8.92.36-12.32-12.66-3.8-16.86,3.18-1.57,20.54-6.68,24-7.04,2.46-.26,7.5.35,9.13,2.19Z"/>
    <path class="cls-5" d="M425.29,416.63c-4.26-4.26-2.53-12.26,3-14.93,2.76-1.33,20.3-5.91,23.22-5.87,3.45.04,6.07,1.2,7.73,4.33,1.79,4.8,1.02,9.42-3.54,11.96-2.53,1.41-19.36,6.42-22.3,6.77-2.27.27-6.53-.67-8.12-2.27Z"/>
    <path class="cls-5" d="M457.68,355.23c8.01-.18,12.75,9.54,6.25,15.1-3.73,3.19-32.94,13.09-32.87,1.01-.67-3.03.59-6.92,3.02-8.86,2.03-1.62,20.83-7.18,23.61-7.25Z"/>
    <path class="cls-5" d="M502.72,233.22c2.38,1.91,2.95,6.99,1.83,9.75l-1.97,3.03c-6.15,2.56-14.05,7.49-19.45.31-2.01-3.49-1.48-7.63,1.32-10.47,4.7-2.01,13.37-6.57,18.27-2.62Z"/>
  </g>
  <g>
    <path class="cls-1" d="M413.92,602.49v-69.29h47.11v13.39h-30.69v17.58h27.67v13.11h-27.67v25.21h-16.42Z"/>
    <path class="cls-1" d="M482.93,603.42c-3.32,0-6.27-.57-8.86-1.7-2.59-1.13-4.61-2.84-6.07-5.12-1.46-2.28-2.19-5.12-2.19-8.53,0-2.88.5-5.32,1.51-7.3,1.01-1.98,2.41-3.6,4.21-4.84,1.8-1.24,3.86-2.19,6.18-2.84,2.33-.65,4.8-1.08,7.44-1.3,2.95-.25,5.32-.52,7.12-.81,1.8-.29,3.12-.74,3.95-1.33.84-.59,1.26-1.41,1.26-2.46v-.19c0-1.21-.28-2.23-.84-3.07-.56-.84-1.36-1.47-2.42-1.91-1.05-.43-2.33-.65-3.81-.65s-2.81.22-3.98.65c-1.16.43-2.12,1.05-2.86,1.86-.74.81-1.27,1.75-1.58,2.84l-14.7-1.91c.68-2.98,2.02-5.59,4.02-7.84,2-2.25,4.62-4,7.86-5.25,3.24-1.25,7.03-1.88,11.37-1.88,3.22,0,6.24.38,9.04,1.14,2.81.76,5.26,1.88,7.37,3.35,2.11,1.47,3.75,3.29,4.93,5.44,1.18,2.15,1.77,4.63,1.77,7.42v35.3h-15.25v-7.3h-.42c-.93,1.8-2.12,3.3-3.56,4.51s-3.12,2.13-5.02,2.77c-1.91.63-4.07.95-6.49.95ZM487.86,592.68c1.83,0,3.48-.37,4.95-1.12,1.47-.74,2.64-1.77,3.51-3.07.87-1.3,1.3-2.81,1.3-4.51v-4.98c-.46.25-1.05.48-1.74.7-.7.22-1.46.41-2.3.58-.84.17-1.67.33-2.51.46s-1.64.27-2.42.4c-1.58.22-2.93.59-4.05,1.12s-1.97,1.21-2.56,2.05c-.59.84-.88,1.84-.88,3.02s.29,2.12.88,2.91c.59.79,1.38,1.4,2.37,1.81.99.42,2.14.63,3.44.63Z"/>
    <path class="cls-1" d="M524.51,602.49v-9.35l24.23-29.62v-.33h-23.44v-12.7h42.78v10.28l-22.46,28.69v.33h23.34v12.7h-44.46Z"/>
    <path class="cls-8" d="M579.8,602.49v-69.29h48.08v13.39h-31.67v14.32h29.16v13.11h-29.16v15.07h31.62v13.39h-48.04Z"/>
    <path class="cls-8" d="M654.06,572.83v29.67h-16.23v-51.99h15.25l.33,13.11h-.7c1.27-4.12,3.26-7.45,5.98-9.97,2.71-2.53,6.36-3.79,10.95-3.79,3.63,0,6.79.81,9.49,2.42,2.7,1.61,4.79,3.89,6.28,6.84s2.23,6.37,2.23,10.28v33.11h-16.23v-29.95c0-2.91-.74-5.2-2.23-6.86-1.49-1.66-3.57-2.49-6.23-2.49-1.74,0-3.28.38-4.63,1.14-1.35.76-2.4,1.85-3.14,3.28-.74,1.43-1.12,3.16-1.12,5.21Z"/>
    <path class="cls-8" d="M722.47,603.47c-5.43,0-10.09-1.12-14-3.37-3.91-2.25-6.91-5.38-9-9.39-2.09-4.01-3.14-8.69-3.14-14.02s1.05-10.05,3.14-14.07c2.09-4.01,5.09-7.15,9-9.39,3.91-2.25,8.57-3.37,14-3.37,3.32,0,6.35.43,9.11,1.3,2.76.87,5.18,2.1,7.25,3.7,2.08,1.6,3.76,3.53,5.05,5.81,1.29,2.28,2.13,4.83,2.53,7.65l-14.97,2.51c-.25-1.36-.63-2.57-1.14-3.63s-1.13-1.95-1.86-2.7-1.58-1.3-2.56-1.67-2.05-.56-3.23-.56c-2.08,0-3.84.57-5.3,1.7-1.46,1.13-2.57,2.78-3.33,4.93-.76,2.16-1.14,4.72-1.14,7.7s.38,5.55,1.14,7.72,1.87,3.84,3.33,5c1.46,1.16,3.22,1.74,5.3,1.74,1.21,0,2.29-.19,3.26-.58.96-.39,1.82-.96,2.58-1.72s1.39-1.69,1.91-2.79c.51-1.1.88-2.35,1.09-3.74l14.97,2.42c-.4,2.92-1.25,5.53-2.54,7.84s-2.97,4.29-5.04,5.93c-2.08,1.64-4.5,2.9-7.28,3.77-2.77.87-5.82,1.3-9.14,1.3Z"/>
    <path class="cls-8" d="M770.51,603.42c-3.32,0-6.27-.57-8.86-1.7-2.59-1.13-4.61-2.84-6.07-5.12-1.46-2.28-2.19-5.12-2.19-8.53,0-2.88.5-5.32,1.51-7.3,1.01-1.98,2.41-3.6,4.21-4.84,1.8-1.24,3.86-2.19,6.18-2.84,2.33-.65,4.81-1.08,7.44-1.3,2.94-.25,5.32-.52,7.11-.81,1.8-.29,3.12-.74,3.95-1.33s1.26-1.41,1.26-2.46v-.19c0-1.21-.28-2.23-.84-3.07-.56-.84-1.37-1.47-2.42-1.91-1.05-.43-2.33-.65-3.81-.65s-2.81.22-3.98.65c-1.16.43-2.12,1.05-2.86,1.86-.74.81-1.27,1.75-1.58,2.84l-14.69-1.91c.68-2.98,2.02-5.59,4.02-7.84,2-2.25,4.62-4,7.86-5.25,3.24-1.25,7.03-1.88,11.37-1.88,3.22,0,6.24.38,9.04,1.14s5.26,1.88,7.37,3.35c2.11,1.47,3.75,3.29,4.93,5.44,1.18,2.15,1.77,4.63,1.77,7.42v35.3h-15.25v-7.3h-.42c-.93,1.8-2.12,3.3-3.56,4.51-1.44,1.21-3.12,2.13-5.02,2.77-1.91.63-4.07.95-6.49.95ZM775.44,592.68c1.83,0,3.48-.37,4.95-1.12,1.47-.74,2.64-1.77,3.51-3.07.87-1.3,1.3-2.81,1.3-4.51v-4.98c-.47.25-1.05.48-1.74.7-.7.22-1.46.41-2.3.58-.84.17-1.67.33-2.51.46s-1.64.27-2.42.4c-1.58.22-2.93.59-4.05,1.12s-1.97,1.21-2.56,2.05-.88,1.84-.88,3.02.29,2.12.88,2.91c.59.79,1.38,1.4,2.37,1.81.99.42,2.14.63,3.44.63Z"/>
    <path class="cls-8" d="M811.99,602.49v-51.99h15.76v9.49h.56c.93-3.44,2.47-5.99,4.63-7.65,2.15-1.66,4.66-2.49,7.51-2.49.74,0,1.53.05,2.35.14.82.09,1.57.23,2.25.42v14.14c-.78-.28-1.79-.49-3.05-.63-1.25-.14-2.38-.21-3.37-.21-1.98,0-3.77.44-5.35,1.33-1.58.88-2.82,2.1-3.72,3.65-.9,1.55-1.35,3.36-1.35,5.44v28.37h-16.23Z"/>
    <path class="cls-8" d="M882.02,550.5v12.04h-32.46v-12.04h32.46ZM856.45,538.13h16.23v48.46c0,1.36.33,2.38.98,3.05.65.67,1.71,1,3.16,1,.56,0,1.34-.06,2.35-.19s1.73-.25,2.16-.37l2.09,11.81c-1.83.53-3.6.88-5.3,1.07-1.71.19-3.32.28-4.84.28-5.52,0-9.7-1.29-12.56-3.88s-4.28-6.36-4.28-11.32v-49.9Z"/>
    <path class="cls-8" d="M913.65,603.47c-5.43,0-10.11-1.08-14.04-3.23-3.94-2.15-6.95-5.23-9.04-9.23s-3.14-8.77-3.14-14.32,1.05-10.01,3.14-14.04c2.09-4.03,5.06-7.17,8.91-9.42,3.84-2.25,8.37-3.37,13.58-3.37,3.66,0,7.01.57,10.07,1.72,3.05,1.15,5.7,2.84,7.95,5.09,2.25,2.25,3.98,5.02,5.21,8.3,1.22,3.29,1.84,7.08,1.84,11.39v4.09h-44.92v-9.44h37.2l-7.58,2.23c0-2.42-.36-4.49-1.09-6.23-.73-1.74-1.81-3.07-3.23-4-1.43-.93-3.19-1.39-5.3-1.39s-3.89.47-5.35,1.42c-1.46.95-2.57,2.26-3.33,3.95s-1.14,3.67-1.14,5.93v6.79c0,2.67.44,4.89,1.33,6.67.88,1.78,2.12,3.12,3.7,4s3.43,1.33,5.53,1.33c1.46,0,2.78-.2,3.98-.6,1.19-.4,2.22-1.01,3.07-1.81.85-.81,1.5-1.78,1.93-2.93l14.46,2.37c-.87,2.98-2.36,5.57-4.49,7.79-2.12,2.22-4.81,3.93-8.04,5.14-3.24,1.21-6.97,1.81-11.18,1.81Z"/>
    <path class="cls-8" d="M958.06,603.47c-2.48,0-4.57-.83-6.25-2.49-1.69-1.66-2.53-3.73-2.53-6.21s.84-4.5,2.53-6.16c1.69-1.66,3.77-2.49,6.25-2.49s4.56.83,6.25,2.49c1.69,1.66,2.53,3.71,2.53,6.16s-.84,4.55-2.53,6.21c-1.69,1.66-3.78,2.49-6.25,2.49Z"/>
  </g>
</svg>